<?xml version="1.0" standalone="no"?><!DOCTYPE svg PUBLIC "-//W3C//DTD SVG 1.1//EN" "http://www.w3.org/Graphics/SVG/1.1/DTD/svg11.dtd"><svg t="1592737975202" class="icon" viewBox="0 0 1024 1024" version="1.1" xmlns="http://www.w3.org/2000/svg" p-id="4519" xmlns:xlink="http://www.w3.org/1999/xlink" width="200" height="200"><defs><style type="text/css"></style></defs><path d="M512 290.87a142 142 0 1 0 142 142 142 142 0 0 0-142-142z m0 204a62 62 0 1 1 62-62 62 62 0 0 1-62 62z" fill="#999999" p-id="4520"></path><path d="M512 128.05c-168.45 0-305 136.56-305 305S512 896 512 896s305-294.5 305-462.95-136.55-305-305-305zM287 429.82c0-124.27 100.74-225 225-225s225 100.73 225 225S512 773 512 773 287 554.08 287 429.82z" fill="#f00" p-id="4521"></path></svg>